<svg xmlns="http://www.w3.org/2000/svg" viewBox="0 0 32 32" width="32" height="32">
  <defs>
    <linearGradient id="orangeGrad" x1="0%" y1="0%" x2="100%" y2="100%">
      <stop offset="0%" style="stop-color:#FF8C42;stop-opacity:1" />
      <stop offset="50%" style="stop-color:#FF6B35;stop-opacity:1" />
      <stop offset="100%" style="stop-color:#E55A2B;stop-opacity:1" />
    </linearGradient>
    <linearGradient id="grayGrad" x1="0%" y1="0%" x2="100%" y2="100%">
      <stop offset="0%" style="stop-color:#4A4A4A;stop-opacity:1" />
      <stop offset="50%" style="stop-color:#3A3A3A;stop-opacity:1" />
      <stop offset="100%" style="stop-color:#2A2A2A;stop-opacity:1" />
    </linearGradient>
  </defs>

  <!-- 3D Layered Logo Design optimized for 32x32 -->
  <!-- Bottom layer -->
  <path d="M6 13 Q6 10 9 10 L23 10 Q26 10 26 13 L26 16 Q26 19 23 19 L17 19 Q14 19 14 22 L14 25 Q14 28 17 28 L23 28 Q26 28 26 25"
        fill="url(#grayGrad)" transform="translate(1.5,1.5)" opacity="0.8"/>

  <!-- Top layer -->
  <path d="M6 13 Q6 10 9 10 L23 10 Q26 10 26 13 L26 16 Q26 19 23 19 L17 19 Q14 19 14 22 L14 25 Q14 28 17 28 L23 28 Q26 28 26 25"
        fill="url(#orangeGrad)"/>

  <!-- Accent dots -->
  <circle cx="10" cy="14" r="1.2" fill="#FFA500"/>
  <circle cx="22" cy="24" r="1" fill="#3A3A3A" opacity="0.7"/>
</svg>