<svg xmlns="http://www.w3.org/2000/svg" viewBox="0 0 400 400" width="400" height="400">
  <defs>
    <!-- Gradients for the 3D layered design -->
    <linearGradient id="orangeGradient" x1="0%" y1="0%" x2="100%" y2="100%">
      <stop offset="0%" style="stop-color:#FF8C42;stop-opacity:1" />
      <stop offset="50%" style="stop-color:#FF6B35;stop-opacity:1" />
      <stop offset="100%" style="stop-color:#E55A2B;stop-opacity:1" />
    </linearGradient>

    <linearGradient id="darkGrayGradient" x1="0%" y1="0%" x2="100%" y2="100%">
      <stop offset="0%" style="stop-color:#4A4A4A;stop-opacity:1" />
      <stop offset="50%" style="stop-color:#3A3A3A;stop-opacity:1" />
      <stop offset="100%" style="stop-color:#2A2A2A;stop-opacity:1" />
    </linearGradient>

    <linearGradient id="mediumGrayGradient" x1="0%" y1="0%" x2="100%" y2="100%">
      <stop offset="0%" style="stop-color:#6A6A6A;stop-opacity:1" />
      <stop offset="50%" style="stop-color:#5A5A5A;stop-opacity:1" />
      <stop offset="100%" style="stop-color:#4A4A4A;stop-opacity:1" />
    </linearGradient>

    <!-- 3D depth shadows -->
    <filter id="depth" x="-50%" y="-50%" width="200%" height="200%">
      <feDropShadow dx="2" dy="4" stdDeviation="3" flood-color="#000000" flood-opacity="0.3"/>
    </filter>
  </defs>

  <!-- Background (optional, transparent for favicon) -->
  <rect width="400" height="400" fill="none"/>

  <!-- 3D Layered Logo Design -->
  <!-- Bottom layer - darkest -->
  <path d="M 80 160 Q 80 120 120 120 L 280 120 Q 320 120 320 160 L 320 200 Q 320 240 280 240 L 200 240 Q 160 240 160 280 L 160 320 Q 160 360 200 360 L 280 360 Q 320 360 320 320"
        fill="url(#darkGrayGradient)"
        filter="url(#depth)"
        transform="translate(8,8)"/>

  <!-- Middle layer - medium gray -->
  <path d="M 80 160 Q 80 120 120 120 L 280 120 Q 320 120 320 160 L 320 200 Q 320 240 280 240 L 200 240 Q 160 240 160 280 L 160 320 Q 160 360 200 360 L 280 360 Q 320 360 320 320"
        fill="url(#mediumGrayGradient)"
        filter="url(#depth)"
        transform="translate(4,4)"/>

  <!-- Top layer - orange accent -->
  <path d="M 80 160 Q 80 120 120 120 L 280 120 Q 320 120 320 160 L 320 200 Q 320 240 280 240 L 200 240 Q 160 240 160 280 L 160 320 Q 160 360 200 360 L 280 360 Q 320 360 320 320"
        fill="url(#orangeGradient)"
        filter="url(#depth)"/>

  <!-- Additional curved elements for 3D effect -->
  <ellipse cx="120" cy="180" rx="15" ry="8" fill="url(#orangeGradient)" opacity="0.8"/>
  <ellipse cx="280" cy="300" rx="15" ry="8" fill="url(#darkGrayGradient)" opacity="0.6"/>

  <!-- Highlight accents -->
  <path d="M 90 140 Q 110 135 130 140" stroke="#FFA500" stroke-width="3" fill="none" opacity="0.7"/>
  <path d="M 270 340 Q 290 335 310 340" stroke="#666666" stroke-width="2" fill="none" opacity="0.5"/>
</svg>